<svg width="17" height="17" viewBox="0 0 17 17" fill="none" xmlns="http://www.w3.org/2000/svg">
<path d="M8.4915 0C3.7995 0 0 3.808 0 8.5C0 13.192 3.7995 17 8.4915 17C13.192 17 17 13.192 17 8.5C17 3.808 13.192 0 8.4915 0ZM8.5 15.3C4.743 15.3 1.7 12.257 1.7 8.5C1.7 4.743 4.743 1.7 8.5 1.7C12.257 1.7 15.3 4.743 15.3 8.5C15.3 12.257 12.257 15.3 8.5 15.3ZM8.313 4.25H8.262C7.922 4.25 7.65 4.522 7.65 4.862V8.874C7.65 9.1715 7.803 9.452 8.0665 9.605L11.594 11.7215C11.883 11.8915 12.257 11.8065 12.427 11.5175C12.4697 11.4487 12.4981 11.372 12.5105 11.2919C12.5229 11.2119 12.5191 11.1302 12.4993 11.0517C12.4794 10.9732 12.444 10.8994 12.3951 10.8349C12.3462 10.7703 12.2847 10.7163 12.2145 10.676L8.925 8.721V4.862C8.925 4.522 8.653 4.25 8.313 4.25Z" fill="#E6442F"/>
</svg>
