<svg width="21" height="19" viewBox="0 0 21 19" fill="none" xmlns="http://www.w3.org/2000/svg">
    <path fill-rule="evenodd" clip-rule="evenodd" d="M7.49416 0.063265C6.86324 0.225973 6.29508 0.441681 5.59523 0.78418C2.87759 2.11422 0.951755 4.40974 0.251457 7.15373C0.0476929 7.95215 0.000731973 8.37318 1.7162e-05 9.40771C-0.000567683 10.2301 0.0132086 10.3991 0.13217 11.0297C0.441207 12.6681 1.22806 14.2339 2.38697 15.5166C4.05692 17.3651 6.30526 18.5524 8.78576 18.8958C9.39395 18.98 9.7089 19.0005 10.3859 19C11.8382 18.9989 13.1312 18.7625 14.4241 18.2617C17.0322 17.2516 19.0474 15.3571 20.1 12.9257C20.3511 12.3457 20.6051 11.5112 20.5819 11.3426C20.5565 11.1592 20.3931 11.0507 20.1427 11.051C19.9468 11.0513 19.8575 11.093 19.4805 11.3609C18.0046 12.4095 16.1949 12.9516 14.3498 12.8977C13.0718 12.8604 11.9271 12.5821 10.8083 12.0367C9.25771 11.2807 8.03371 10.1011 7.28264 8.63883C6.89606 7.88623 6.65408 7.11902 6.53664 6.27354C6.48337 5.89012 6.48357 4.84836 6.53696 4.47845C6.66372 3.60018 6.89537 2.84128 7.2445 2.16043C7.46576 1.72898 7.65794 1.43455 8.07355 0.890286C8.32278 0.563922 8.33491 0.539592 8.32369 0.388744C8.31292 0.244089 8.23849 0.13733 8.09345 0.0585044C7.9475 -0.0207851 7.81613 -0.019753 7.49416 0.063265ZM6.72572 1.25338C6.72572 1.25338 6.39887 1.8058 6.23863 2.14982C5.95771 2.75281 5.71149 3.59872 5.6091 4.31248C5.56287 4.63469 5.54199 5.75696 5.57476 6.15699C5.66065 7.20473 6.04117 8.37587 6.61971 9.37308C6.79172 9.66955 7.19892 10.2566 7.40817 10.5097C8.43849 11.7562 9.75272 12.6649 11.3778 13.2544C12.1628 13.5391 12.983 13.709 13.8651 13.7696C14.2752 13.7978 15.3313 13.7853 15.682 13.7481C16.6821 13.6421 17.4934 13.4173 18.866 12.8661C19.0685 12.7848 19.2379 12.7218 19.2424 12.7262C19.2622 12.7455 18.8017 13.535 18.5917 13.8415C17.5988 15.2914 16.2727 16.4211 14.7073 17.1505C13.6977 17.621 12.7194 17.8956 11.5448 18.0383C11.1107 18.0911 9.81268 18.0911 9.37866 18.0383C8.90782 17.9811 8.45965 17.9008 8.05734 17.8014C4.55975 16.9378 1.88144 14.2764 1.19091 10.9783C1.08675 10.4809 1.05085 10.1541 1.03571 9.5657C1.00697 8.44676 1.1315 7.63402 1.49087 6.59508C2.06015 4.94941 3.13351 3.54273 4.6999 2.38958C5.0173 2.15591 5.86952 1.64514 6.05371 1.57819C6.15805 1.54027 6.72572 1.25338 6.72572 1.25338Z" fill="#D5D5D5"/>
</svg>
