<svg width="13" height="14" viewBox="0 0 13 14" fill="none" xmlns="http://www.w3.org/2000/svg">
<path d="M11.907 9.36601C11.046 9.36601 10.213 9.22601 9.436 8.97401C9.191 8.89001 8.918 8.95301 8.729 9.14201L7.63 10.521C5.649 9.57601 3.794 7.79101 2.807 5.74001L4.172 4.57801C4.361 4.38201 4.417 4.10901 4.34 3.86401C4.081 3.08701 3.948 2.25401 3.948 1.39301C3.948 1.01501 3.633 0.700012 3.255 0.700012H0.833C0.455 0.700012 0 0.868012 0 1.39301C0 7.89601 5.411 13.3 11.907 13.3C12.404 13.3 12.6 12.859 12.6 12.474V10.059C12.6 9.68101 12.285 9.36601 11.907 9.36601Z" fill="#D5D5D5"/>
</svg>
