<svg width="29" height="28" viewBox="0 0 29 28" fill="none" xmlns="http://www.w3.org/2000/svg">
<path fill-rule="evenodd" clip-rule="evenodd" d="M14.6666 0C6.93464 0 0.666626 6.26801 0.666626 14C0.666626 21.732 6.93464 28 14.6666 28C22.3986 28 28.6666 21.732 28.6666 14C28.6666 6.26801 22.3986 0 14.6666 0ZM15.8066 18.4194C15.6685 18.565 15.399 18.5944 15.399 18.5944H14.5065C14.5065 18.5944 12.5373 18.7105 10.8027 16.9382C8.91095 15.0046 7.24055 11.1682 7.24055 11.1682C7.24055 11.1682 7.14414 10.9166 7.24859 10.7954C7.36618 10.6585 7.68682 10.6499 7.68682 10.6499L9.82029 10.6363C9.82029 10.6363 10.0211 10.6685 10.165 10.7725C10.2841 10.8585 10.3506 11.0184 10.3506 11.0184C10.3506 11.0184 10.6953 11.8744 11.1518 12.6487C12.0436 14.1608 12.4585 14.4913 12.7608 14.3293C13.202 14.0934 13.0698 12.192 13.0698 12.192C13.0698 12.192 13.0778 11.5023 12.8478 11.1948C12.6695 10.9567 12.3336 10.8872 12.1853 10.8678C12.0648 10.8521 12.262 10.5782 12.5176 10.4556C12.9018 10.2713 13.5796 10.2606 14.3808 10.2685C15.0053 10.2749 15.185 10.3129 15.429 10.371C15.9951 10.5051 15.9775 10.9349 15.9393 11.8625C15.9279 12.1399 15.9147 12.4618 15.9147 12.8337C15.9147 12.9173 15.9122 13.0063 15.9096 13.098C15.8964 13.5732 15.8812 14.1174 16.2002 14.3199C16.3638 14.4232 16.7634 14.335 17.7633 12.6688C18.2373 11.8787 18.5923 10.9503 18.5923 10.9503C18.5923 10.9503 18.6704 10.7847 18.7909 10.7137C18.9144 10.6413 19.0809 10.6635 19.0809 10.6635L21.3261 10.6499C21.3261 10.6499 22.001 10.5703 22.1098 10.87C22.2245 11.1833 21.8578 11.916 20.9405 13.1162C20.0703 14.255 19.6468 14.6742 19.6857 15.045C19.7141 15.316 19.9893 15.5611 20.5176 16.042C21.6203 17.047 21.9159 17.5758 21.9869 17.7028C21.9928 17.7133 21.9971 17.7211 22.0003 17.7262C22.4947 18.5313 21.4517 18.5944 21.4517 18.5944L19.4571 18.6216C19.4571 18.6216 19.029 18.7048 18.4652 18.3248C18.1698 18.1259 17.8812 17.8011 17.6063 17.4917C17.1864 17.0192 16.7986 16.5828 16.4676 16.6859C15.9117 16.8594 15.9285 18.0344 15.9285 18.0344C15.9285 18.0344 15.9329 18.2861 15.8066 18.4194Z" fill="#0076D5"/>
</svg>
