<svg width="29" height="28" viewBox="0 0 29 28" fill="none" xmlns="http://www.w3.org/2000/svg">
<path fill-rule="evenodd" clip-rule="evenodd" d="M14.3334 0C6.60139 0 0.333374 6.26801 0.333374 14C0.333374 21.732 6.60139 28 14.3334 28C22.0654 28 28.3334 21.732 28.3334 14C28.3334 6.26801 22.0654 0 14.3334 0ZM20.1676 9.1871C20.8102 9.36343 21.3162 9.88295 21.488 10.5427C21.8 11.7384 21.8 14.2333 21.8 14.2333C21.8 14.2333 21.8 16.7281 21.488 17.924C21.3162 18.5837 20.8102 19.1032 20.1676 19.2796C19.0032 19.6 14.3334 19.6 14.3334 19.6C14.3334 19.6 9.66358 19.6 8.49903 19.2796C7.85647 19.1032 7.35044 18.5837 7.17871 17.924C6.86672 16.7281 6.86672 14.2333 6.86672 14.2333C6.86672 14.2333 6.86672 11.7384 7.17871 10.5427C7.35044 9.88295 7.85647 9.36343 8.49903 9.1871C9.66358 8.86666 14.3334 8.86666 14.3334 8.86666C14.3334 8.86666 19.0032 8.86666 20.1676 9.1871Z" fill="#0076D5"/>
<path fill-rule="evenodd" clip-rule="evenodd" d="M12.9333 16.8V12.1333L16.6666 14.4667L12.9333 16.8Z" fill="#0076D5"/>
</svg>
