<svg width="20" height="19" viewBox="0 0 20 19" fill="none" xmlns="http://www.w3.org/2000/svg">
    <path fill-rule="evenodd" clip-rule="evenodd" d="M6.98742 0.161861C6.35343 0.367997 6.18754 0.433803 5.63179 0.699448C3.89222 1.53096 2.45031 2.79644 1.44993 4.36962C0.75189 5.4673 0.28984 6.69779 0.0859343 8.00205C0.0024261 8.53591 -0.0268819 9.66143 0.0279045 10.2288C0.24537 12.4807 1.27193 14.5608 2.96058 16.171C4.89315 18.0138 7.36088 18.9954 10.073 19C14.6526 19.0078 18.6395 16.1366 19.8688 11.9454C19.941 11.6991 20.0001 11.4294 20 11.3461C19.9997 11.0317 19.7404 10.8037 19.3827 10.8035C19.1391 10.8033 19.0169 10.8576 18.6718 11.1191C17.8372 11.7515 16.7449 12.2417 15.6821 12.4606C13.1726 12.9776 10.5708 12.2465 8.76469 10.5167C6.88871 8.72003 6.1589 6.11638 6.83271 3.62437C7.08538 2.69001 7.4372 2.00539 8.1182 1.12301C8.28541 0.906367 8.33121 0.815968 8.34457 0.675861C8.38001 0.304502 8.06181 -0.00652857 7.65321 0.000104162C7.55431 0.00174371 7.25986 0.0732506 6.98742 0.161861ZM6.08864 1.94838C6.08864 1.95579 6.03788 2.06896 5.97582 2.1999C5.71436 2.75172 5.46946 3.59516 5.36035 4.31969C5.26977 4.9213 5.27048 6.13807 5.36172 6.68586C5.5176 7.62156 5.76762 8.38194 6.18625 9.19367C7.18487 11.1301 8.82643 12.565 10.9476 13.3559C11.9401 13.726 12.9364 13.8995 14.0799 13.9014C15.4901 13.9038 16.4878 13.6961 17.9405 13.0979L18.0886 13.0368L18.0225 13.1591C17.7061 13.7435 17.093 14.5393 16.5333 15.092C14.8314 16.7724 12.5666 17.6969 10.1527 17.6969C5.76824 17.6969 2.02651 14.5486 1.45923 10.3823C1.38377 9.82807 1.38209 8.8181 1.45575 8.28562C1.64707 6.90243 2.17548 5.59687 2.97793 4.52464C3.65951 3.6139 4.62891 2.74628 5.56109 2.21264C5.73303 2.1142 5.90888 2.01232 5.95187 1.98624C6.02967 1.93902 6.08864 1.9227 6.08864 1.94838Z" fill="#E4E4E4"/>
</svg>
