<svg width="20" height="20" viewBox="0 0 20 20" fill="none" xmlns="http://www.w3.org/2000/svg">
    <path fill-rule="evenodd" clip-rule="evenodd" d="M9.70915 0.0601409C9.52821 0.155789 9.45049 0.235496 9.37254 0.405343C9.30826 0.545338 9.30072 0.678848 9.29994 1.6862C9.299 2.89041 9.31189 2.98445 9.50599 3.19239C9.7718 3.47723 10.2323 3.47723 10.4981 3.19239C10.6918 2.98484 10.705 2.88935 10.705 1.69472C10.705 0.523575 10.6904 0.407687 10.518 0.217015C10.3322 0.011418 9.94379 -0.063874 9.70915 0.0601409ZM3.10903 2.79167C2.93293 2.88353 2.8515 2.96789 2.77234 3.14039C2.68408 3.3327 2.68064 3.47043 2.75949 3.65923C2.83455 3.83892 4.33397 5.36011 4.54264 5.46823C5.14919 5.78252 5.77707 5.05945 5.39621 4.48529C5.22109 4.22132 3.82826 2.85837 3.66306 2.78929C3.48122 2.71329 3.25747 2.71423 3.10903 2.79167ZM16.3323 2.78886C16.1725 2.86087 14.7707 4.23992 14.6079 4.48529C14.2249 5.06262 14.8233 5.76119 15.4502 5.46873C15.6609 5.37039 17.1622 3.8565 17.2446 3.65923C17.3237 3.46985 17.32 3.33305 17.2305 3.13586C17.079 2.80203 16.6614 2.64066 16.3323 2.78886ZM9.29908 5.01437C7.6575 5.25583 6.23475 6.2971 5.49498 7.79853C5.12978 8.53965 4.98755 9.15613 4.98755 9.99754C4.98755 11.054 5.26722 11.9562 5.86912 12.8412C6.13227 13.2282 6.77284 13.8691 7.15964 14.1323C9.21336 15.5302 11.8847 15.2674 13.5835 13.5002C14.878 12.1536 15.3365 10.3352 14.8261 8.57141C14.3215 6.82727 12.7449 5.40419 10.9297 5.05449C10.4733 4.96654 9.74578 4.94865 9.29908 5.01437ZM10.9979 6.49864C12.2451 6.86459 13.1208 7.73953 13.5027 9.0012C13.6001 9.32296 13.6092 9.40767 13.6092 9.99754C13.6092 10.5874 13.6001 10.6721 13.5027 10.9939C13.1212 12.2543 12.2578 13.1181 10.9979 13.4998C10.6763 13.5973 10.5917 13.6063 10.0021 13.6063C9.41246 13.6063 9.32779 13.5973 9.00617 13.4998C7.74635 13.1181 6.88294 12.2543 6.50138 10.9939C6.40397 10.6721 6.39491 10.5874 6.39491 9.99754C6.39491 9.40767 6.40397 9.32296 6.50138 9.0012C6.86478 7.80083 7.67941 6.94207 8.81531 6.56197C9.31751 6.39392 9.52001 6.36591 10.1192 6.38165C10.5461 6.39287 10.7134 6.41514 10.9979 6.49864ZM0.434892 9.3561C0.256374 9.43358 0.167838 9.51723 0.0780908 9.69317C-0.103903 10.0499 0.0419655 10.4551 0.414193 10.627C0.554438 10.6918 0.685192 10.6992 1.69448 10.7C2.89813 10.7009 2.99214 10.688 3.19999 10.4938C3.48469 10.2279 3.48469 9.76717 3.19999 9.50125C2.99194 9.3069 2.89841 9.29413 1.69448 9.29577C0.782165 9.29702 0.54487 9.30839 0.434892 9.3561ZM17.0321 9.35649C16.5541 9.56388 16.4365 10.1505 16.8041 10.4938C17.0116 10.6876 17.107 10.7008 18.3011 10.7008C19.4717 10.7008 19.5876 10.6862 19.7782 10.5138C19.8983 10.405 20 10.1685 20 9.99754C20 9.8266 19.8983 9.59006 19.7782 9.48132C19.587 9.30839 19.4731 9.29417 18.2926 9.29577C17.3772 9.29702 17.1432 9.30827 17.0321 9.35649ZM4.55397 14.5264C4.34323 14.6247 2.8419 16.1386 2.75949 16.3359C2.68041 16.5252 2.68408 16.662 2.77359 16.8592C2.86935 17.0702 3.08228 17.2303 3.29985 17.2548C3.62545 17.2915 3.71672 17.2301 4.52706 16.4292C5.4057 15.5607 5.51107 15.4224 5.51017 15.1386C5.50849 14.6228 5.01903 14.3094 4.55397 14.5264ZM14.8643 14.5071C14.5272 14.6577 14.3642 15.0675 14.5089 15.4005C14.5787 15.5611 16.1949 17.1695 16.3412 17.224C16.8946 17.4301 17.4458 16.8552 17.2116 16.3162C17.1418 16.1557 15.5256 14.5472 15.3793 14.4927C15.2306 14.4373 15.0066 14.4436 14.8643 14.5071ZM9.94348 16.5824C9.922 16.5887 9.85744 16.6042 9.80003 16.6168C9.64838 16.6502 9.45495 16.8277 9.3725 17.0094C9.30834 17.1507 9.30072 17.2853 9.29994 18.2918C9.29904 19.4726 9.31337 19.587 9.48607 19.7781C9.59476 19.8983 9.8312 20 10.0021 20C10.1729 20 10.4094 19.8983 10.518 19.7781C10.6904 19.5874 10.705 19.4715 10.705 18.3004C10.705 17.1057 10.6918 17.0102 10.4981 16.8027C10.3639 16.6588 10.0747 16.544 9.94348 16.5824Z" fill="white"/>
</svg>
