<svg width="15" height="16" viewBox="0 0 15 16" fill="none" xmlns="http://www.w3.org/2000/svg">
<path d="M5.93898 2.23589H3.94951V4.1466H5.93898V2.23589ZM3.30621 2.23589H1.31574V4.1466H3.30621V2.23589ZM3.97917 -6.35782e-08C3.95867 0.604327 3.94908 1.17717 3.94908 1.71767H6.61195C6.59189 2.14957 6.58188 2.7436 6.58188 3.49949C6.58188 4.23413 6.59189 4.78465 6.61195 5.15167H5.93898V4.66587H3.94908V6.05885C3.94908 6.3182 3.95867 6.80457 3.97917 7.51741H3.24502C3.28558 7.12914 3.30621 6.67568 3.30621 6.1564V4.66587H1.31574V5.15167H0.642765C0.663267 4.82771 0.672959 4.27703 0.672959 3.49949C0.672959 2.70057 0.663267 2.10497 0.642765 1.71767H3.30621C3.30621 1.13411 3.29562 0.56079 3.27557 -6.35782e-08H3.97917ZM12.704 3.72638V4.63345H11.7559V3.72638H12.704ZM11.7559 3.27244V2.36444H12.704V3.27244H11.7559ZM10.1944 4.63345V3.72638H11.1736V4.63345H10.1944ZM10.1944 3.27244V2.36444H11.1736V3.27244H10.1944ZM14.8782 6.41681V5.83229C14.6332 5.85448 14.3471 5.8646 14.0204 5.8646H11.7559V5.08645H13.5609C13.8676 5.08645 14.1633 5.09826 14.4493 5.11993V4.60066C14.1633 4.62294 13.8877 4.63345 13.6225 4.63345H13.2558V3.72638H14.1437C14.3668 3.72638 14.603 3.73713 14.8477 3.75869V3.24107C14.6218 3.26173 14.3882 3.27244 14.1437 3.27244H13.2558V2.36444H13.8068C14.0104 2.36444 14.2354 2.37694 14.48 2.39735V1.88043C14.2354 1.90069 13.9594 1.91144 13.6535 1.91144H9.36762C9.06192 1.91144 8.76531 1.90069 8.48008 1.88043V2.39735C8.74525 2.37694 9.00989 2.36444 9.27584 2.36444H9.64284V3.27244H8.6023C8.39842 3.27244 8.20412 3.26173 8.0206 3.24107V3.75869C8.20412 3.73713 8.39842 3.72638 8.6023 3.72638H9.64284V4.63345H9.58155C9.27584 4.63345 8.9086 4.62294 8.48008 4.60066V5.11993C8.92809 5.09826 9.29543 5.08645 9.58155 5.08645H11.1736V5.8646H8.87763C8.61245 5.8646 8.35786 5.85448 8.11242 5.83229V6.41681C8.35786 6.39592 8.61245 6.38342 8.87763 6.38342H11.1736V6.93406C11.1736 7.17125 11.163 7.36633 11.1431 7.51741H11.7854C11.7655 7.3451 11.7559 7.13976 11.7559 6.90269V6.38342H13.9899C14.316 6.38342 14.6123 6.39592 14.8782 6.41681ZM9.91883 1.78146H10.5611C10.5412 1.52353 10.5302 1.30699 10.5302 1.13411H12.3681C12.3681 1.35005 12.3573 1.5549 12.3367 1.74997H12.9796C12.9595 1.57709 12.9499 1.37233 12.9499 1.13411H13.7763C14.2655 1.13411 14.6739 1.14483 15 1.16605V0.615529C14.6332 0.636633 14.2249 0.648196 13.7763 0.648196H12.9499C12.9499 0.495696 12.9595 0.302527 12.9796 0.0633443H12.3367C12.3573 0.302527 12.3681 0.495696 12.3681 0.648196H10.5302C10.5302 0.475286 10.5412 0.280245 10.5611 0.0633443H9.91883C9.93788 0.280245 9.94889 0.475286 9.94889 0.648196H9.12253C8.75518 0.648196 8.35786 0.636633 7.92845 0.615529V1.16605C8.35786 1.14483 8.75518 1.13411 9.12253 1.13411H9.94889C9.94889 1.30699 9.93788 1.52353 9.91883 1.78146ZM4.95908 9.26004V10.912H6.55099C6.77561 10.912 7.0105 10.9019 7.25505 10.8791V11.4954C6.96948 11.4738 6.7245 11.4636 6.52093 11.4636V14.8016C6.52093 15.1678 6.53051 15.5576 6.55099 15.968H5.90869C5.92862 15.5576 5.93878 15.178 5.93878 14.8331V11.4636H4.95908C4.95908 12.0036 4.93891 12.5223 4.89735 13.0184C4.85679 13.516 4.77011 14.0076 4.63774 14.4925C4.50459 14.9789 4.3065 15.4818 4.04055 16C3.83699 15.8706 3.63254 15.7613 3.42854 15.6762C3.75533 15.178 3.98428 14.6554 4.11754 14.1041C4.25034 13.5526 4.32621 13.073 4.34717 12.662C4.36634 12.2515 4.37727 11.6365 4.37727 10.8154C4.37727 9.973 4.36634 9.3031 4.34717 8.80565C5.2657 8.76305 6.09197 8.61058 6.82667 8.35204C6.98953 8.6969 7.12236 8.93608 7.22453 9.06464C6.91791 9.06464 6.16317 9.12925 4.95908 9.26004ZM3.73482 14.477C3.53037 14.5852 3.36747 14.7252 3.24514 14.8973C3.08147 14.5103 2.86698 14.1313 2.60226 13.7641C2.74422 13.6346 2.89753 13.516 3.06085 13.4082C3.30632 13.7541 3.53037 14.1104 3.73482 14.477ZM1.65353 10.8791C1.46982 10.9226 1.29546 10.9883 1.13211 11.0743C1.03028 10.7494 0.918187 10.4586 0.795397 10.1996C0.938125 10.1137 1.10193 10.0377 1.28619 9.973C1.42826 10.2759 1.55048 10.5778 1.65353 10.8791ZM2.51013 9.1945C2.97965 9.1945 3.41773 9.18435 3.82606 9.16204V9.81036C3.39856 9.78949 3.05073 9.77793 2.78578 9.77793H1.31594C0.968673 9.77793 0.632962 9.78949 0.306176 9.81036V9.16204C0.653016 9.18435 0.989266 9.1945 1.31594 9.1945H1.86757C1.82558 8.95718 1.7654 8.70858 1.68374 8.45065C1.88731 8.38543 2.10123 8.32019 2.32673 8.25404C2.4289 8.70858 2.48951 9.02158 2.51013 9.1945ZM2.87779 11.1386C3.2242 11.1386 3.58196 11.1284 3.94931 11.1067V11.7543C3.60145 11.7345 3.08147 11.7225 2.38823 11.7225V12.532C3.01964 12.532 3.52024 12.5223 3.88759 12.5002V13.1478C3.52024 13.1267 3.01964 13.116 2.38823 13.116V15.0929C2.38823 15.4164 2.29062 15.6319 2.09675 15.7411C1.90322 15.8488 1.65353 15.902 1.3466 15.902C1.26491 15.6435 1.16354 15.4063 1.04086 15.1894C1.32643 15.2107 1.52587 15.2107 1.63805 15.1894C1.75037 15.1678 1.8055 15.0707 1.8055 14.8973V13.116C1.15205 13.116 0.642879 13.1267 0.275533 13.1478V12.5002C0.663045 12.5223 1.17324 12.532 1.8055 12.532V11.7225C1.05133 11.7225 0.489569 11.7345 0.122337 11.7543V11.1067C0.489569 11.1284 0.836412 11.1386 1.16354 11.1386H2.32673C2.48951 10.6204 2.61184 10.2218 2.69408 9.93973C2.85686 9.98432 3.08147 10.0485 3.36747 10.1354C3.2242 10.2218 3.06085 10.5566 2.87779 11.1386ZM1.16354 14.2989C0.999306 14.5259 0.765214 14.8447 0.459486 15.2547C0.315756 15.1031 0.162446 14.9736 0 14.865C0.428399 14.3699 0.765214 13.8506 1.01023 13.3096C1.21377 13.4831 1.4081 13.6245 1.59116 13.7319C1.46982 13.8833 1.32643 14.0723 1.16354 14.2989ZM12.2761 13.7961L10.6227 13.8927V13.1811H12.2761V13.7961ZM12.2761 12.0138V12.6949H10.6227V12.0138H12.2761ZM12.2761 10.8479V11.529H10.6227V10.8479H12.2761ZM14.6944 8.83853H11.6327C11.3885 8.83853 11.0513 8.82793 10.6227 8.80565V9.38954C10.8879 9.36786 11.2347 9.35723 11.6633 9.35723H14.0821V14.8331C14.0619 15.0499 14.0048 15.1678 13.9137 15.1895C13.822 15.2107 13.5924 15.2224 13.225 15.2224C13.3474 15.4378 13.4287 15.6765 13.4697 15.9348C13.9388 15.8488 14.2554 15.7566 14.4187 15.659C14.5816 15.562 14.6629 15.3189 14.6629 14.9308V10.2634C14.6629 9.7673 14.6739 9.29153 14.6944 8.83853ZM12.6119 10.3927H10.2862C9.95939 10.3927 9.67382 10.3826 9.42869 10.3624V10.8792C9.67382 10.8585 9.88828 10.8479 10.0711 10.8479V13.9579C9.72439 14.0032 9.44874 14.023 9.24486 14.023C9.3059 14.24 9.34746 14.4438 9.36762 14.6389C9.95939 14.5104 10.9291 14.4027 12.2761 14.3152C12.2761 14.6172 12.2659 14.9626 12.245 15.3518H12.8578C12.8373 14.9626 12.8268 14.5959 12.8268 14.2491C13.2346 14.2071 13.5207 14.1849 13.6841 14.1849L13.6535 13.6661C13.225 13.711 12.9499 13.7319 12.8268 13.7319V10.8479C13.0303 10.8479 13.2452 10.8585 13.4697 10.8792V10.3624C13.1836 10.3826 12.8989 10.3927 12.6119 10.3927ZM10.0412 9.48567C9.8777 9.20521 9.64284 8.83853 9.33699 8.38543C9.1527 8.49322 8.97923 8.61058 8.81679 8.74149C9.12253 9.15156 9.35704 9.50795 9.52039 9.81036C9.6834 9.65964 9.85722 9.55088 10.0412 9.48567ZM8.84654 11.3651C8.84654 10.9551 8.85746 10.4798 8.87763 9.93973H8.26516C8.28621 10.4155 8.29568 10.8903 8.29568 11.3651V14.4438C8.29568 14.8331 8.27574 15.2972 8.23418 15.8371H8.84654V11.3651Z" fill="#F2EF21"/>
</svg>
